Coordinates
version=1
nRows=29
nColumns=24
inDegrees=yes

Units are S.I. units (second, meters, Newtons, ...)
Angles are in degrees.

endheader
time	pelvis_tilt	pelvis_list	pelvis_rotation	pelvis_tx	pelvis_ty	pelvis_tz	hip_flexion_r	hip_adduction_r	hip_rotation_r	knee_angle_r	ankle_angle_r	subtalar_angle_r	mtp_angle_r	hip_flexion_l	hip_adduction_l	hip_rotation_l	knee_angle_l	ankle_angle_l	subtalar_angle_l	mtp_angle_l	lumbar_extension	lumbar_bending	lumbar_rotation
      1.71650000	      5.49423718	      2.62193293	     -5.56972885	      1.31859766	      1.01231743	      0.33326655	     12.29142071	     -8.18834489	     -2.57356002	    -75.97915256	     -3.08661367	     -0.36460510	      8.35872619	     10.78391774	      4.24819354	     -5.19934249	    -19.83671891	      1.27700666	    -17.69434894	     -5.29733831	    -16.08881965	     -6.93757967	      3.75706400
      1.72066667	      5.56392134	      2.44533659	     -5.25045454	      1.32331933	      1.01373707	      0.33231982	     12.89428451	     -7.96618776	     -2.89877076	    -75.95094546	     -2.65030217	     -0.27403730	      8.34062612	     10.21420426	      4.18762078	     -4.88977480	    -19.47387911	      1.38753922	    -17.56687505	     -5.26554572	    -16.24468860	     -6.60923686	      3.56920129
      1.72483333	      5.66821747	      2.24846386	     -4.86652232	      1.32805261	      1.01522970	      0.33122980	     13.41765358	     -7.75541184	     -3.31310044	    -75.84492028	     -2.26261001	     -0.25920374	      8.31147326	      9.59724669	      4.12264078	     -4.49535774	    -19.08993237	      1.45430082	    -17.47301631	     -5.22833465	    -16.45200317	     -6.23638214	      3.24546947
      1.72900000	      5.78197037	      2.05054720	     -4.50263250	      1.33276519	      1.01671734	      0.33018705	     13.92499609	     -7.54733540	     -3.71732749	    -75.69255743	     -1.88707091	     -0.25418233	      8.27808445	      8.96776104	      4.04615733	     -4.11910831	    -18.69273212	      1.49748273	    -17.41032836	     -5.19070606	    -16.66277834	     -5.86753379	      2.95963806
      1.73316667	      5.89942168	      1.86403087	     -4.14046576	      1.33744405	      1.01817100	      0.32915545	     14.42585355	     -7.35868525	     -4.12415409	    -75.50500253	     -1.50895491	     -0.25129432	      8.23511072	      8.33384981	      3.97484430	     -3.74531191	    -18.28231718	      1.53947424	    -17.35524579	     -5.14922072	    -16.87236453	     -5.51080213	      2.65117730
      1.73733333	      6.01780875	      1.66159301	     -3.78886317	      1.34210727	      1.01961057	      0.32816157	     14.91190656	     -7.15287678	     -4.53053875	    -75.26448477	     -1.16563553	     -0.28959484	      8.18568542	      7.70023765	      3.87602412	     -3.38415127	    -17.87771501	      1.58230939	    -17.30908365	     -5.10844918	    -17.08069747	     -5.13343614	      2.39297315
      1.74150000	      6.14664993	      1.47139817	     -3.43655153	      1.34673120	      1.02103200	      0.32715884	     15.37830445	     -6.97402253	     -4.94553329	    -74.98210917	     -0.82637594	     -0.31521004	      8.12934481	      7.05229212	      3.78758650	     -3.01126037	    -17.45662103	      1.61034744	    -17.28610421	     -5.06793205	    -17.30039158	     -4.77188368	      2.13422246
      1.74566667	      6.26297078	      1.27898183	     -3.12399317	      1.35136121	      1.02241612	      0.32625383	     15.85529639	     -6.78401698	     -5.33125543	    -74.65503492	     -0.50425704	     -0.37351072	      8.06422904	      6.40956310	      3.68128705	     -2.68020361	    -17.01763020	      1.63211585	    -17.27375403	     -5.02734141	    -17.49496351	     -4.41943453	      1.90446064
      1.74983333	      6.39791156	      1.09760707	     -2.81532011	      1.35597057	      1.02378538	      0.32538850	     16.30330867	     -6.60758931	     -5.70945525	    -74.29317285	     -0.18030700	     -0.42410598	      7.99218846	      5.74243095	      3.57998325	     -2.35278072	    -16.55927647	      1.64138216	    -17.27598026	     -4.98708547	    -17.71688995	     -4.07995355	      1.69152953
      1.75400000	      6.51459954	      0.90215893	     -2.49987186	      1.36055671	      1.02509404	      0.32451667	     16.75376081	     -6.42224432	     -6.10525370	    -73.87956647	      0.13066792	     -0.49829785	      7.91089481	      5.10872704	      3.45514505	     -2.02675343	    -16.13008015	      1.66658846	    -17.26611653	     -4.94756033	    -17.90883975	     -3.71779483	      1.48596005
      1.75816667	      6.62511484	      0.72441113	     -2.22384746	      1.36512031	      1.02634596	      0.32373700	     17.21557190	     -6.24934984	     -6.46398295	    -73.43794000	      0.41795430	     -0.57511824	      7.82214239	      4.47335883	      3.34026983	     -1.72467719	    -15.67165033	      1.66487007	    -17.30421553	     -4.90858446	    -18.09595301	     -3.38994189	      1.28181678
      1.76233333	      6.74084821	      0.54938758	     -1.94486276	      1.36966848	      1.02755863	      0.32297230	     17.65565141	     -6.08506925	     -6.83041105	    -72.95446604	      0.71215175	     -0.66294096	      7.70924424	      3.84462725	      3.21999792	     -1.43131898	    -15.23452940	      1.68501638	    -17.29629301	     -4.86287854	    -18.28751345	     -3.06844358	      1.08355425
      1.76650000	      6.83281203	      0.35930138	     -1.69038558	      1.37420228	      1.02870487	      0.32227858	     18.11144237	     -5.89340414	     -7.17208943	    -72.42223340	      0.97312032	     -0.72682834	      7.61129388	      3.23616333	      3.07509348	     -1.15274304	    -14.78932153	      1.70387623	    -17.34588697	     -4.82849936	    -18.44497390	     -2.73291296	      0.96254378
      1.77066667	      6.92459895	      0.18464410	     -1.43525677	      1.37872173	      1.02979568	      0.32160434	     18.55473352	     -5.72404814	     -7.51751072	    -71.85607993	      1.25446748	     -0.80576510	      7.49981840	      2.64226510	      2.93765883	     -0.90122886	    -14.36129206	      1.72840112	    -17.35918482	     -4.79227553	    -18.59834878	     -2.40802034	      0.79698530
      1.77483333	      7.01354258	      0.02641675	     -1.23194647	      1.38325863	      1.03083759	      0.32103537	     18.99754086	     -5.56065243	     -7.81699704	    -71.25561122	      1.51012858	     -0.89735370	      7.38453733	      2.03270491	      2.81276540	     -0.67126482	    -13.89576636	      1.72307030	    -17.41968428	     -4.75891112	    -18.74976153	     -2.12479980	      0.69111886
      1.77900000	      7.07963931	     -0.12324166	     -0.97719102	      1.38773494	      1.03177831	      0.32038378	     19.44837654	     -5.42868665	     -8.16516259	    -70.62137602	      1.76901228	     -0.98733507	      7.23738402	      1.47896051	      2.69416910	     -0.39393489	    -13.48316368	      1.74543091	    -17.44379169	     -4.71365347	    -18.88349608	     -1.83914908	      0.53203419
      1.78316667	      7.12064985	     -0.26869582	     -0.81087553	      1.39225652	      1.03264404	      0.31994018	     19.92808360	     -5.26194171	     -8.41871644	    -69.94858229	      1.98833376	     -1.06979938	      7.11556168	      0.93156049	      2.56637022	     -0.21689787	    -13.03461525	      1.75138793	    -17.50400665	     -4.67963211	    -18.96842854	     -1.57718396	      0.46279585
      1.78733333	      7.09640063	     -0.37585386	     -0.69459753	      1.39672888	      1.03329638	      0.31965611	     20.49480538	     -5.11175142	     -8.60924588	    -69.28327958	      2.28219715	     -1.15548820	      7.07079848	      0.47549286	      2.46630685	     -0.10764500	    -12.62353948	      1.75901144	    -17.50618836	     -4.66773825	    -18.99851094	     -1.37794899	      0.43660323
      1.79150000	      7.23547260	     -0.56301239	     -0.41372744	      1.40123181	      1.03430261	      0.31897133	     20.77116119	     -4.96171107	     -9.00940274	    -68.45193314	      2.43278315	     -1.25405951	      6.90254915	     -0.16032056	      2.29745812	      0.21223685	    -12.19606440	      1.78843379	    -17.57007463	     -4.62432618	    -19.20154921	     -1.05458114	      0.29550521
      1.79566667	      7.20566932	     -0.69042656	     -0.28351705	      1.40574651	      1.03490009	      0.31863759	     21.28672871	     -4.80473784	     -9.22489235	    -67.66441590	      2.61201335	     -1.30807434	      6.79754470	     -0.60351221	      2.17356375	      0.34109815	    -11.80457469	      1.82902882	    -17.60443502	     -4.59922895	    -19.20791444	     -0.81322410	      0.22486108
      1.79983333	      7.15290413	     -0.75303446	     -0.18283821	      1.41022796	      1.03534866	      0.31842957	     21.83954033	     -4.70004764	     -9.38704287	    -66.89193244	      2.89345933	     -1.40550564	      6.75900996	     -1.01821028	      2.11004992	      0.43297277	    -11.40786058	      1.84732483	    -17.58963442	     -4.59001543	    -19.19574484	     -0.67486276	      0.20333315
      1.80400000	      7.21419861	     -0.92523148	      0.05492689	      1.41475112	      1.03607910	      0.31784901	     22.15960708	     -4.55595304	     -9.74463348	    -65.94450279	      2.95895119	     -1.50639479	      6.61826851	     -1.54765075	      1.94036066	      0.69006217	    -11.03202366	      1.90769390	    -17.66005631	     -4.55542416	    -19.30112921	     -0.35991952	      0.10907394
      1.80816667	      7.15565022	     -0.98352029	      0.14263570	      1.41923469	      1.03644545	      0.31769511	     22.67188299	     -4.44921105	     -9.88883590	    -65.07330866	      3.24742996	     -1.56190278	      6.56780038	     -1.94874990	      1.87450373	      0.77403368	    -10.65280952	      1.92255603	    -17.64919148	     -4.54349515	    -19.28276801	     -0.24313437	      0.06663157
      1.81233333	      7.24534342	     -1.13184215	      0.37548705	      1.42370781	      1.03711599	      0.31714749	     22.92711934	     -4.32792065	    -10.23019274	    -64.04618390	      3.32282727	     -1.66621540	      6.37001029	     -2.50405737	      1.72104985	      1.03789953	    -10.27335907	      1.98290893	    -17.68021751	     -4.49830578	    -19.43996785	      0.04471061	     -0.05867089
      1.81650000	      7.22077052	     -1.22511925	      0.52158832	      1.42824773	      1.03750449	      0.31682427	     23.32112499	     -4.22230041	    -10.45859999	    -63.03821986	      3.48306385	     -1.73960671	      6.18143080	     -2.92976050	      1.61648724	      1.17503903	     -9.92032235	      2.03829216	    -17.67684580	     -4.45656342	    -19.45069954	      0.24121756	     -0.13449949
      1.82066667	      7.18953856	     -1.30035249	      0.64744306	      1.43281375	      1.03782558	      0.31652261	     23.70874363	     -4.13313659	    -10.66769536	    -61.99323315	      3.62162510	     -1.82489786	      6.02101688	     -3.34572128	      1.53025770	      1.27872249	     -9.57936866	      2.10995720	    -17.66575896	     -4.42207675	    -19.43985891	      0.41769021	     -0.17340984
      1.82483333	      7.09949052	     -1.31359820	      0.72933915	      1.43730732	      1.03793847	      0.31640011	     24.17877704	     -4.07468537	    -10.79135826	    -60.96730853	      3.86338785	     -1.89940871	      5.96733215	     -3.68922823	      1.50340306	      1.34223605	     -9.24538461	      2.15206355	    -17.63470025	     -4.41017426	    -19.38383344	      0.48600324	     -0.20348507
      1.82900000	      7.00868729	     -1.37369330	      0.84695021	      1.44192214	      1.03808137	      0.31616635	     24.58749239	     -3.98935579	    -10.97703352	    -59.84478418	      3.99938242	     -2.00704693	      5.89457151	     -4.03128118	      1.42606473	      1.43211805	     -8.92864002	      2.22348679	    -17.60979627	     -4.39461430	    -19.30675928	      0.63499375	     -0.24018429
      1.83316667	      7.07961503	     -1.46847511	      1.07271873	      1.44642756	      1.03847529	      0.31564721	     24.75826314	     -3.92797581	    -11.29698338	    -58.61930474	      4.04715667	     -2.12900118	      5.68343527	     -4.53479276	      1.30835565	      1.63453472	     -8.61203636	      2.35614588	    -17.53282193	     -4.34712454	    -19.43930300	      0.87003356	     -0.37628715
